<svg width="30.000000" height="30.000000" viewBox="0 0 30 30" fill="none" xmlns="http://www.w3.org/2000/svg" xmlns:xlink="http://www.w3.org/1999/xlink">
	<desc>
			Created with Pixso.
	</desc>
	<defs>
		<clipPath id="clip67_197">
			<rect id="Icon" width="30.000000" height="30.000000" fill="white" fill-opacity="0"/>
		</clipPath>
	</defs>
	<rect id="Icon" width="30.000000" height="30.000000" fill="#FFFFFF" fill-opacity="0"/>
	<g clip-path="url(#clip67_197)">
		<path id="path4" d="M26.0547 21.4312C25.6367 22.3918 25.1445 23.2764 24.5742 24.0894C23.7969 25.1978 23.1602 25.9651 22.6719 26.3911C21.9102 27.0906 21.0938 27.4487 20.2227 27.469C19.5977 27.469 18.8398 27.2908 17.9609 26.9292C17.0781 26.5693 16.2695 26.3911 15.5273 26.3911C14.75 26.3911 13.9141 26.5693 13.0234 26.9292C12.1328 27.2908 11.4102 27.4792 10.8594 27.4978C10.0234 27.5334 9.19141 27.1653 8.35938 26.3911C7.82812 25.9277 7.16406 25.1333 6.36719 24.0078C5.51172 22.8062 4.80859 21.4124 4.25781 19.8235C3.67188 18.1074 3.375 16.4456 3.375 14.8367C3.375 12.9937 3.77344 11.4043 4.57031 10.0723C5.19922 9.00244 6.03125 8.15845 7.07422 7.53882C8.12109 6.91919 9.24609 6.60352 10.4609 6.58325C11.125 6.58325 11.9961 6.78882 13.082 7.19287C14.1602 7.59814 14.8555 7.80371 15.1562 7.80371C15.3867 7.80371 16.1562 7.56348 17.4609 7.08423C18.6953 6.63965 19.7383 6.45581 20.5938 6.52832C22.9062 6.71509 24.6445 7.62695 25.8008 9.27026C23.7305 10.5239 22.707 12.28 22.7266 14.5327C22.7461 16.2874 23.3828 17.7476 24.6328 18.907C25.1992 19.4451 25.8359 19.8608 26.5391 20.1562C26.3867 20.5994 26.2266 21.0237 26.0547 21.4312ZM20.7461 0.550293C20.7461 1.92578 20.2461 3.20996 19.2422 4.39844C18.0352 5.81128 16.5742 6.62793 14.9883 6.49902C14.9688 6.33398 14.957 6.1604 14.957 5.97803C14.957 4.65771 15.5312 3.24463 16.5508 2.08936C17.0586 1.50439 17.707 1.01807 18.4961 0.630127C19.2773 0.247803 20.0195 0.036377 20.7188 0.000244141C20.7383 0.184082 20.7461 0.36792 20.7461 0.550293L20.7461 0.550293Z" fill="#CAFF33" fill-opacity="1.000000" fill-rule="nonzero"/>
	</g>
</svg>
