<svg width="30.000000" height="30.000000" viewBox="0 0 30 30" fill="none" xmlns="http://www.w3.org/2000/svg" xmlns:xlink="http://www.w3.org/1999/xlink">
	<desc>
			Created with Pixso.
	</desc>
	<defs>
		<clipPath id="clip67_204">
			<rect id="Icon" width="30.000000" height="30.000000" fill="white" fill-opacity="0"/>
		</clipPath>
	</defs>
	<rect id="Icon" width="30.000000" height="30.000000" fill="#FFFFFF" fill-opacity="0"/>
	<g clip-path="url(#clip67_204)">
		<path id="Vector" d="M30 15C30 6.71582 23.2852 0 15 0C6.71484 0 0 6.71582 0 15C0 22.4868 5.48438 28.6924 12.6562 29.8179L12.6562 19.3359L8.84766 19.3359L8.84766 15L12.6562 15L12.6562 11.6953C12.6562 7.93604 14.8945 5.85938 18.3203 5.85938C19.9609 5.85938 21.6797 6.15234 21.6797 6.15234L21.6797 9.84375L19.7891 9.84375C17.9258 9.84375 17.3438 11 17.3438 12.1875L17.3438 15L21.5039 15L20.8398 19.3359L17.3438 19.3359L17.3438 29.8179C24.5156 28.6924 30 22.4868 30 15Z" fill="#CAFF33" fill-opacity="1.000000" fill-rule="nonzero"/>
		<path id="Vector" d="M20.8398 19.3359L21.5039 15L17.3438 15L17.3438 12.1875C17.3438 11.0012 17.9258 9.84375 19.7891 9.84375L21.6797 9.84375L21.6797 6.15234C21.6797 6.15234 19.9648 5.85938 18.3203 5.85938C14.8945 5.85938 12.6562 7.93604 12.6562 11.6953L12.6562 15L8.84766 15L8.84766 19.3359L12.6562 19.3359L12.6562 29.8179C14.2109 30.0608 15.7891 30.0608 17.3438 29.8179L17.3438 19.3359L20.8398 19.3359Z" fill="#1C1C1C" fill-opacity="1.000000" fill-rule="nonzero"/>
	</g>
</svg>
