<svg width="30.000000" height="30.000000" viewBox="0 0 30 30" fill="none" xmlns="http://www.w3.org/2000/svg" xmlns:xlink="http://www.w3.org/1999/xlink">
	<desc>
			Created with Pixso.
	</desc>
	<defs>
		<clipPath id="clip67_207">
			<rect id="Icon" width="30.000000" height="30.000000" fill="white" fill-opacity="0"/>
		</clipPath>
	</defs>
	<rect id="Icon" width="30.000000" height="30.000000" fill="#FFFFFF" fill-opacity="0"/>
	<g clip-path="url(#clip67_207)">
		<path id="Vector" d="M29.707 15.3455C29.707 14.3259 29.625 13.3008 29.4492 12.2976L15.3008 12.2976L15.3008 18.0737L23.4023 18.0737C23.0664 19.9368 21.9883 21.5847 20.4062 22.6321L20.4062 26.3799L25.2383 26.3799C28.0781 23.7673 29.707 19.9092 29.707 15.3455Z" fill="#CAFF33" fill-opacity="1.000000" fill-rule="evenodd"/>
		<path id="Vector" d="M15.3008 30.0012C19.3438 30.0012 22.7578 28.6729 25.2422 26.3799L20.4102 22.6321C19.0625 23.5469 17.3281 24.0652 15.3047 24.0652C11.3906 24.0652 8.07422 21.425 6.88281 17.8755L1.89453 17.8755L1.89453 21.7393C4.44141 26.8044 9.62891 30.0012 15.3008 30.0012Z" fill="#CAFF33" fill-opacity="1.000000" fill-rule="evenodd"/>
		<path id="Vector" d="M6.87891 17.8755C6.25 16.0125 6.25 13.9951 6.87891 12.1323L6.87891 8.26855L1.89453 8.26855C-0.230469 12.5071 -0.230469 17.5005 1.89453 21.739L6.87891 17.8755Z" fill="#CAFF33" fill-opacity="1.000000" fill-rule="evenodd"/>
		<path id="Vector" d="M15.3008 5.93701C17.4375 5.90405 19.5039 6.70874 21.0547 8.18579L25.3359 3.90332C22.625 1.35693 19.0234 -0.0429688 15.3008 0.000976562C9.62891 0.000976562 4.44141 3.19775 1.89453 8.26855L6.87891 12.1321C8.0625 8.57715 11.3867 5.93701 15.3008 5.93701Z" fill="#CAFF33" fill-opacity="1.000000" fill-rule="evenodd"/>
	</g>
</svg>
