<svg width="34.000000" height="34.000000" viewBox="0 0 34 34" fill="none" xmlns="http://www.w3.org/2000/svg" xmlns:xlink="http://www.w3.org/1999/xlink">
	<desc>
			Created with Pixso.
	</desc>
	<defs>
		<clipPath id="clip103_140">
			<rect id="Icon" width="34.000000" height="34.000000" fill="white" fill-opacity="0"/>
		</clipPath>
	</defs>
	<g clip-path="url(#clip103_140)">
		<path id="Subtract" d="M3.1875 3.1875C2.60059 3.1875 2.125 3.66321 2.125 4.25C2.125 4.83679 2.60059 5.3125 3.1875 5.3125L4.25 5.3125L4.25 20.1875C4.25 22.5347 6.15234 24.4375 8.5 24.4375L10.2129 24.4375L8.55469 29.414C8.36914 29.9707 8.66992 30.5724 9.22656 30.758C9.7832 30.9435 10.3848 30.6427 10.5703 30.086L11.0371 28.6875L22.9629 28.6875L23.4297 30.086C23.6152 30.6427 24.2168 30.9435 24.7734 30.758C25.3301 30.5724 25.6309 29.9707 25.4453 29.414L23.7871 24.4375L25.5 24.4375C27.8477 24.4375 29.75 22.5347 29.75 20.1875L29.75 5.3125L30.8125 5.3125C31.3994 5.3125 31.875 4.83679 31.875 4.25C31.875 3.66321 31.3994 3.1875 30.8125 3.1875L3.1875 3.1875ZM11.7451 26.5625L12.4531 24.4375L21.5469 24.4375L22.2549 26.5625L11.7451 26.5625ZM22.3125 9.5625C22.3125 8.97571 21.8369 8.5 21.25 8.5C20.6631 8.5 20.1875 8.97571 20.1875 9.5625L20.1875 18.0625C20.1875 18.6493 20.6631 19.125 21.25 19.125C21.8369 19.125 22.3125 18.6493 22.3125 18.0625L22.3125 9.5625ZM18.0625 12.75C18.0625 12.1632 17.5869 11.6875 17 11.6875C16.4131 11.6875 15.9375 12.1632 15.9375 12.75L15.9375 18.0625C15.9375 18.6493 16.4131 19.125 17 19.125C17.5869 19.125 18.0625 18.6493 18.0625 18.0625L18.0625 12.75ZM13.8125 15.9375C13.8125 15.3507 13.3369 14.875 12.75 14.875C12.1631 14.875 11.6875 15.3507 11.6875 15.9375L11.6875 18.0625C11.6875 18.6493 12.1631 19.125 12.75 19.125C13.3369 19.125 13.8125 18.6493 13.8125 18.0625L13.8125 15.9375Z" fill="#CAFF33" fill-opacity="1.000000" fill-rule="evenodd"/>
	</g>
</svg>
