<svg width="34.000000" height="34.000000" viewBox="0 0 34 34" fill="none" xmlns="http://www.w3.org/2000/svg" xmlns:xlink="http://www.w3.org/1999/xlink">
	<desc>
			Created with Pixso.
	</desc>
	<defs>
		<clipPath id="clip103_144">
			<rect id="Icon" width="34.000000" height="34.000000" fill="white" fill-opacity="0"/>
		</clipPath>
	</defs>
	<g clip-path="url(#clip103_144)">
		<path id="Subtract" d="M14.875 3.1875C12.5273 3.1875 10.625 5.0903 10.625 7.4375L10.625 7.72787C9.30371 7.84882 7.99414 8.00696 6.69531 8.20126C4.63477 8.50946 3.1875 10.3015 3.1875 12.3331L3.1875 16.6301C3.1875 18.3459 4.22656 19.9626 5.93066 20.529C9.41113 21.6863 13.1338 22.3125 17 22.3125C20.8662 22.3125 24.5889 21.6863 28.0693 20.5291C29.7734 19.9626 30.8125 18.3459 30.8125 16.6301L30.8125 12.3331C30.8125 10.3015 29.3652 8.50946 27.3047 8.20123C26.0059 8.00696 24.6963 7.84882 23.375 7.72787L23.375 7.4375C23.375 5.0903 21.4727 3.1875 19.125 3.1875L14.875 3.1875ZM21.25 7.56616L21.25 7.4375C21.25 6.26389 20.2988 5.3125 19.125 5.3125L14.875 5.3125C13.7012 5.3125 12.75 6.26389 12.75 7.4375L12.75 7.56616C14.1562 7.4808 15.5732 7.4375 17 7.4375C18.4268 7.4375 19.8438 7.4808 21.25 7.56616ZM18.0625 18.0625C18.0625 18.6493 17.5869 19.125 17 19.125C16.4131 19.125 15.9375 18.6493 15.9375 18.0625C15.9375 17.4757 16.4131 17 17 17C17.5869 17 18.0625 17.4757 18.0625 18.0625ZM4.25 22.1056L4.25 26.0666C4.25 28.1235 5.7334 29.9306 7.82422 30.2082C10.8271 30.6068 13.8896 30.8125 17 30.8125C20.1104 30.8125 23.1729 30.6068 26.1758 30.2082C28.2666 29.9306 29.75 28.1235 29.75 26.0666L29.75 22.1056C29.4336 22.2789 29.0967 22.4268 28.7402 22.5455C25.0459 23.7738 21.0967 24.4375 17 24.4375C12.9033 24.4375 8.9541 23.7738 5.25977 22.5455C4.90332 22.4268 4.56641 22.2789 4.25 22.1056Z" fill="#CAFF33" fill-opacity="1.000000" fill-rule="evenodd"/>
	</g>
</svg>
