<svg width="34.000000" height="34.000000" viewBox="0 0 34 34" fill="none" xmlns="http://www.w3.org/2000/svg" xmlns:xlink="http://www.w3.org/1999/xlink">
	<desc>
			Created with Pixso.
	</desc>
	<defs>
		<clipPath id="clip103_146">
			<rect id="Icon" width="34.000000" height="34.000000" fill="white" fill-opacity="0"/>
		</clipPath>
	</defs>
	<g clip-path="url(#clip103_146)">
		<path id="Union" d="M2.125 16.4688L2.125 13.9291C2.125 12.9146 2.48828 11.9336 3.14844 11.1633L7.80176 5.73413C8.60938 4.79214 9.78809 4.25 11.0283 4.25L22.9717 4.25C24.2119 4.25 25.3906 4.79214 26.1982 5.73413L30.8516 11.1633C31.5117 11.9336 31.875 12.9146 31.875 13.9291L31.875 16.4688C31.875 17.9358 30.6855 19.125 29.2188 19.125L4.78125 19.125C3.31445 19.125 2.125 17.9358 2.125 16.4688ZM9.41504 7.11707C9.81836 6.64606 10.4082 6.375 11.0283 6.375L22.9717 6.375C23.5918 6.375 24.1816 6.64606 24.585 7.11707L28.502 11.6875L24.0186 11.6875C22.5977 11.6875 21.2705 12.3977 20.4824 13.58L20.25 13.9287C19.8555 14.5199 19.1924 14.875 18.4814 14.875L15.5186 14.875C14.8076 14.875 14.1445 14.5199 13.75 13.9287L13.5176 13.58C12.7295 12.3977 11.4023 11.6875 9.98145 11.6875L5.49805 11.6875L9.41504 7.11707ZM2.125 23.1094C2.125 22.0825 2.95703 21.25 3.98438 21.25L9.98145 21.25C11.4023 21.25 12.7295 21.9602 13.5176 23.1425L13.75 23.4912C14.1445 24.0824 14.8076 24.4375 15.5186 24.4375L18.4814 24.4375C19.1924 24.4375 19.8555 24.0824 20.25 23.4912L20.4824 23.1425C21.2705 21.9602 22.5977 21.25 24.0186 21.25L30.0156 21.25C31.043 21.25 31.875 22.0825 31.875 23.1094L31.875 25.5C31.875 27.8472 29.9727 29.75 27.625 29.75L6.375 29.75C4.02734 29.75 2.125 27.8472 2.125 25.5L2.125 23.1094Z" fill="#CAFF33" fill-opacity="1.000000" fill-rule="evenodd"/>
	</g>
</svg>
