<svg width="34.000000" height="34.000000" viewBox="0 0 34 34" fill="none" xmlns="http://www.w3.org/2000/svg" xmlns:xlink="http://www.w3.org/1999/xlink">
	<desc>
			Created with Pixso.
	</desc>
	<defs>
		<clipPath id="clip103_142">
			<rect id="Icon" width="34.000000" height="34.000000" fill="white" fill-opacity="0"/>
		</clipPath>
	</defs>
	<g clip-path="url(#clip103_142)">
		<path id="Vector" d="M17 1.0625C10.5449 1.0625 5.3125 6.29517 5.3125 12.75C5.3125 17.0719 7.65918 20.8445 11.1426 22.8657C12.1133 23.4291 12.7217 24.2936 12.749 25.1636C12.7637 25.6435 13.0996 26.0536 13.5664 26.1641C14.0645 26.2817 14.5713 26.3743 15.0869 26.4405C15.5449 26.4994 15.9375 26.1322 15.9375 25.67L15.9375 19.0668C15.4854 19.0168 15.042 18.9352 14.6104 18.824C14.042 18.6777 13.7002 18.0985 13.8467 17.5302C13.9922 16.9619 14.5723 16.6198 15.1396 16.7661C15.7334 16.9188 16.3564 17.0002 17 17.0002C17.6436 17.0002 18.2676 16.9188 18.8604 16.7661C19.4287 16.6198 20.0078 16.9619 20.1543 17.5302C20.3008 18.0985 19.958 18.6777 19.3896 18.824C18.958 18.9352 18.5146 19.0168 18.0625 19.0668L18.0625 25.6699C18.0625 26.1321 18.4551 26.4993 18.9141 26.4404C19.4287 26.3742 19.9355 26.2817 20.4336 26.1641C20.9004 26.0536 21.2363 25.6435 21.251 25.1636C21.2783 24.2936 21.8867 23.4291 22.8574 22.8657C26.3408 20.8445 28.6875 17.0719 28.6875 12.75C28.6875 6.29517 23.4551 1.0625 17 1.0625ZM12.7686 28.1912C12.8779 27.6147 13.4336 27.236 14.0107 27.3453C14.9785 27.5289 15.9775 27.6251 17 27.6251C18.0225 27.6251 19.0215 27.5289 19.9893 27.3453C20.5664 27.236 21.1221 27.6147 21.2314 28.1912C21.3408 28.7677 20.9619 29.3237 20.3857 29.4331C19.2881 29.6412 18.1562 29.7501 17 29.7501C15.8438 29.7501 14.7119 29.6412 13.6143 29.4331C13.0381 29.3237 12.6592 28.7677 12.7686 28.1912ZM14.9854 30.7078C14.4023 30.6467 13.8789 31.0703 13.8184 31.6539C13.7568 32.2375 14.1807 32.7602 14.7646 32.8212C15.499 32.8981 16.2451 32.9375 17 32.9375C17.7549 32.9375 18.501 32.8981 19.2354 32.8212C19.8193 32.7602 20.2432 32.2375 20.1816 31.6539C20.1211 31.0703 19.5977 30.6467 19.0146 30.7078C18.3525 30.777 17.6807 30.8125 17 30.8125C16.3193 30.8125 15.6475 30.777 14.9854 30.7078Z" fill="#CAFF33" fill-opacity="1.000000" fill-rule="evenodd"/>
	</g>
</svg>
