<svg width="24.000000" height="24.000000" viewBox="0 0 24 24" fill="none" xmlns="http://www.w3.org/2000/svg" xmlns:xlink="http://www.w3.org/1999/xlink">
	<desc>
			Created with Pixso.
	</desc>
	<defs>
		<clipPath id="clip116_11323">
			<rect id="Icon" width="24.000000" height="24.000000" fill="white" fill-opacity="0"/>
		</clipPath>
	</defs>
	<g clip-path="url(#clip116_11323)">
		<path id="Vector" d="M18 1.5C18.3438 1.5 18.6445 1.73425 18.7266 2.06812L18.9883 3.10352C19.2227 4.04407 19.957 4.77844 20.8945 5.01355L21.9336 5.27234C22.2656 5.35583 22.5 5.65588 22.5 6C22.5 6.34412 22.2656 6.64417 21.9336 6.72766L20.8945 6.98645C19.957 7.22156 19.2227 7.95593 18.9883 8.89648L18.7266 9.93188C18.6445 10.2657 18.3438 10.5 18 10.5C17.6562 10.5 17.3555 10.2657 17.2734 9.93188L17.0117 8.89648C16.7773 7.95593 16.043 7.22156 15.1055 6.98645L14.0664 6.72766C13.7344 6.64417 13.5 6.34412 13.5 6C13.5 5.65588 13.7344 5.35583 14.0664 5.27234L15.1055 5.01355C16.043 4.77844 16.7773 4.04407 17.0117 3.10352L17.2734 2.06812C17.3555 1.73425 17.6562 1.5 18 1.5ZM9 4.5C9.33594 4.5 9.62891 4.72192 9.72266 5.04395L10.5352 7.89014C10.8906 9.13599 11.8633 10.1097 13.1094 10.4657L15.957 11.2788C16.2773 11.3708 16.5 11.6652 16.5 12C16.5 12.3348 16.2773 12.6292 15.957 12.7212L13.1094 13.5343C11.8633 13.8903 10.8906 14.864 10.5352 16.1099L9.72266 18.9561C9.62891 19.2781 9.33594 19.5 9 19.5C8.66406 19.5 8.37109 19.2781 8.27734 18.9561L7.46484 16.1099C7.10938 14.864 6.13672 13.8903 4.89062 13.5343L2.04297 12.7212C1.72266 12.6292 1.5 12.3348 1.5 12C1.5 11.6652 1.72266 11.3708 2.04297 11.2788L4.89062 10.4657C6.13672 10.1097 7.10938 9.13599 7.46484 7.89014L8.27734 5.04395C8.37109 4.72192 8.66406 4.5 9 4.5ZM17.2109 15.5128C17.1094 15.2065 16.8242 15 16.5 15C16.1758 15 15.8906 15.2065 15.7891 15.5128L15.3945 16.6956C15.2461 17.1434 14.8945 17.495 14.4453 17.6443L13.2617 18.0385C12.957 18.1406 12.75 18.4271 12.75 18.75C12.75 19.0729 12.957 19.3594 13.2617 19.4615L14.4453 19.8557C14.8945 20.005 15.2461 20.3566 15.3945 20.8044L15.7891 21.9872C15.8906 22.2935 16.1758 22.5 16.5 22.5C16.8242 22.5 17.1094 22.2935 17.2109 21.9872L17.6055 20.8044C17.7539 20.3566 18.1055 20.005 18.5547 19.8557L19.7383 19.4615C20.043 19.3594 20.25 19.0729 20.25 18.75C20.25 18.4271 20.043 18.1406 19.7383 18.0385L18.5547 17.6443C18.1055 17.495 17.7539 17.1434 17.6055 16.6956L17.2109 15.5128Z" fill="#CAFF33" fill-opacity="1.000000" fill-rule="evenodd"/>
	</g>
</svg>
