<svg width="24.000000" height="24.000000" viewBox="0 0 24 24" fill="none" xmlns="http://www.w3.org/2000/svg" xmlns:xlink="http://www.w3.org/1999/xlink">
	<desc>
			Created with Pixso.
	</desc>
	<defs>
		<clipPath id="clip116_11331">
			<rect id="Icon" width="24.000000" height="24.000000" fill="white" fill-opacity="0"/>
		</clipPath>
	</defs>
	<g clip-path="url(#clip116_11331)">
		<path id="Subtract" d="M12 2.25C6.61328 2.25 2.25 6.61523 2.25 12C2.25 17.3848 6.61328 21.75 12 21.75C17.3867 21.75 21.75 17.3848 21.75 12C21.75 6.61523 17.3867 2.25 12 2.25ZM9 7.5C8.58594 7.5 8.25 7.83582 8.25 8.25C8.25 8.66418 8.58594 9 9 9L10.5 9C11.4805 9 12.3125 9.6261 12.6211 10.5L9 10.5C8.58594 10.5 8.25 10.8358 8.25 11.25C8.25 11.6642 8.58594 12 9 12L12.6211 12C12.3125 12.8739 11.4805 13.5 10.5 13.5L9 13.5C8.69531 13.5 8.42188 13.6827 8.30859 13.963C8.19141 14.2433 8.25391 14.5658 8.46875 14.7803L11.4688 17.7803C11.7617 18.0732 12.2383 18.0732 12.5312 17.7803C12.8242 17.4874 12.8242 17.0126 12.5312 16.7197L10.8008 14.9883C12.4766 14.8558 13.8477 13.6167 14.1758 12L15 12C15.4141 12 15.75 11.6642 15.75 11.25C15.75 10.8358 15.4141 10.5 15 10.5L14.1758 10.5C14.0625 9.9458 13.8281 9.43604 13.5 9L15 9C15.4141 9 15.75 8.66418 15.75 8.25C15.75 7.83582 15.4141 7.5 15 7.5L9 7.5Z" fill="#CAFF33" fill-opacity="1.000000" fill-rule="evenodd"/>
	</g>
</svg>
