<svg width="24.000000" height="24.000000" viewBox="0 0 24 24" fill="none" xmlns="http://www.w3.org/2000/svg" xmlns:xlink="http://www.w3.org/1999/xlink">
	<desc>
			Created with Pixso.
	</desc>
	<defs>
		<clipPath id="clip116_11314">
			<rect id="Icon" width="24.000000" height="24.000000" fill="white" fill-opacity="0"/>
		</clipPath>
	</defs>
	<g clip-path="url(#clip116_11314)">
		<path id="Union" d="M11.6445 1.5896C11.8672 1.47009 12.1328 1.47009 12.3555 1.5896L22.1055 6.8396C22.3477 6.97046 22.5 7.22412 22.5 7.5C22.5 7.77588 22.3477 8.02954 22.1055 8.1604L12.3555 13.4104C12.1328 13.5299 11.8672 13.5299 11.6445 13.4104L1.89453 8.1604C1.65234 8.02954 1.5 7.77588 1.5 7.5C1.5 7.22412 1.65234 6.97046 1.89453 6.8396L11.6445 1.5896ZM3.26562 10.6018L10.9336 14.7311C11.5977 15.0896 12.4023 15.0896 13.0664 14.7311L20.7344 10.6018L22.1055 11.3396C22.3477 11.4705 22.5 11.7241 22.5 12C22.5 12.2759 22.3477 12.5295 22.1055 12.6604L12.3555 17.9104C12.1328 18.0299 11.8672 18.0299 11.6445 17.9104L1.89453 12.6604C1.65234 12.5295 1.5 12.2759 1.5 12C1.5 11.7241 1.65234 11.4705 1.89453 11.3396L3.26562 10.6018ZM3.26562 15.1018L10.9336 19.2311C11.5977 19.5896 12.4023 19.5896 13.0664 19.2311L20.7344 15.1018L22.1055 15.8396C22.3477 15.9705 22.5 16.2241 22.5 16.5C22.5 16.7759 22.3477 17.0295 22.1055 17.1604L12.3555 22.4104C12.1328 22.5299 11.8672 22.5299 11.6445 22.4104L1.89453 17.1604C1.65234 17.0295 1.5 16.7759 1.5 16.5C1.5 16.2241 1.65234 15.9705 1.89453 15.8396L3.26562 15.1018Z" fill="#CAFF33" fill-opacity="1.000000" fill-rule="evenodd"/>
	</g>
</svg>
