<svg width="24.000000" height="24.000000" viewBox="0 0 24 24" fill="none" xmlns="http://www.w3.org/2000/svg" xmlns:xlink="http://www.w3.org/1999/xlink">
	<desc>
			Created with Pixso.
	</desc>
	<defs>
		<clipPath id="clip116_11306">
			<rect id="Icon" width="24.000000" height="24.000000" fill="white" fill-opacity="0"/>
		</clipPath>
	</defs>
	<g clip-path="url(#clip116_11306)">
		<path id="Union" d="M3 6C3 4.34326 4.34375 3 6 3L8.25 3C9.90625 3 11.25 4.34326 11.25 6L11.25 8.25C11.25 9.90674 9.90625 11.25 8.25 11.25L6 11.25C4.34375 11.25 3 9.90674 3 8.25L3 6ZM12.75 6C12.75 4.34326 14.0938 3 15.75 3L18 3C19.6562 3 21 4.34326 21 6L21 8.25C21 9.90674 19.6562 11.25 18 11.25L15.75 11.25C14.0938 11.25 12.75 9.90674 12.75 8.25L12.75 6ZM6 12.75C4.34375 12.75 3 14.0933 3 15.75L3 18C3 19.6567 4.34375 21 6 21L8.25 21C9.90625 21 11.25 19.6567 11.25 18L11.25 15.75C11.25 14.0933 9.90625 12.75 8.25 12.75L6 12.75ZM16.875 12.75C17.2891 12.75 17.625 13.0857 17.625 13.5L17.625 16.125L20.25 16.125C20.6641 16.125 21 16.4607 21 16.875C21 17.2893 20.6641 17.625 20.25 17.625L17.625 17.625L17.625 20.25C17.625 20.6643 17.2891 21 16.875 21C16.4609 21 16.125 20.6643 16.125 20.25L16.125 17.625L13.5 17.625C13.0859 17.625 12.75 17.2893 12.75 16.875C12.75 16.4607 13.0859 16.125 13.5 16.125L16.125 16.125L16.125 13.5C16.125 13.0857 16.4609 12.75 16.875 12.75Z" fill="#CAFF33" fill-opacity="1.000000" fill-rule="evenodd"/>
	</g>
</svg>
