<svg width="30.000000" height="30.000000" viewBox="0 0 30 30" fill="none" xmlns="http://www.w3.org/2000/svg" xmlns:xlink="http://www.w3.org/1999/xlink">
	<desc>
			Created with Pixso.
	</desc>
	<defs>
		<clipPath id="clip101_132">
			<rect id="Icon" width="30.000000" height="30.000000" fill="white" fill-opacity="0"/>
		</clipPath>
	</defs>
	<g clip-path="url(#clip101_132)">
		<path id="Union" d="M1.875 6.09375C1.875 4.79935 2.92432 3.75 4.21875 3.75L25.7812 3.75C27.0757 3.75 28.125 4.79935 28.125 6.09375L28.125 18.2812C28.125 19.5757 27.0757 20.625 25.7812 20.625L4.21875 20.625C2.92432 20.625 1.875 19.5757 1.875 18.2812L1.875 6.09375ZM10.3125 12.1875C10.3125 9.59866 12.4111 7.5 15 7.5C17.5889 7.5 19.6875 9.59866 19.6875 12.1875C19.6875 14.7763 17.5889 16.875 15 16.875C12.4111 16.875 10.3125 14.7763 10.3125 12.1875ZM15 9.375C13.4468 9.375 12.1875 10.6342 12.1875 12.1875C12.1875 13.7408 13.4468 15 15 15C16.5532 15 17.8125 13.7408 17.8125 12.1875C17.8125 10.6342 16.5532 9.375 15 9.375ZM5.625 12.1875C5.625 11.6697 6.04492 11.25 6.5625 11.25L6.57178 11.25C7.08984 11.25 7.50928 11.6697 7.50928 12.1875L7.50928 12.1969C7.50928 12.7146 7.08984 13.1344 6.57178 13.1344L6.5625 13.1344C6.04492 13.1344 5.625 12.7146 5.625 12.1969L5.625 12.1875ZM23.4375 11.25C22.9199 11.25 22.5 11.6697 22.5 12.1875L22.5 12.1969C22.5 12.7146 22.9199 13.1344 23.4375 13.1344L23.4468 13.1344C23.9648 13.1344 24.3843 12.7146 24.3843 12.1969L24.3843 12.1875C24.3843 11.6697 23.9648 11.25 23.4468 11.25L23.4375 11.25ZM1.875 23.4375C1.875 22.9197 2.29492 22.5 2.8125 22.5L24.375 22.5C24.8926 22.5 25.3125 22.9197 25.3125 23.4375L25.3125 24.6939C25.3125 26.271 23.8003 27.3737 22.312 26.9686C16.1001 25.2778 9.5625 24.375 2.8125 24.375C2.29492 24.375 1.875 23.9553 1.875 23.4375Z" fill="#CAFF33" fill-opacity="1.000000" fill-rule="evenodd"/>
	</g>
</svg>
