<svg width="30.000000" height="30.000000" viewBox="0 0 30 30" fill="none" xmlns="http://www.w3.org/2000/svg" xmlns:xlink="http://www.w3.org/1999/xlink">
	<desc>
			Created with Pixso.
	</desc>
	<defs>
		<clipPath id="clip101_130">
			<rect id="Icon" width="30.000000" height="30.000000" fill="white" fill-opacity="0"/>
		</clipPath>
	</defs>
	<g clip-path="url(#clip101_130)">
		<path id="Subtract" d="M7.5 3.75C9.91553 3.75 12.168 4.45349 14.0625 5.66608L14.0625 25.7946C12.2793 24.3216 9.99365 23.4375 7.5 23.4375C6.29297 23.4375 5.13623 23.6445 4.0625 24.024C3.77539 24.1255 3.45703 24.0813 3.2085 23.9056C2.96045 23.7299 2.8125 23.4445 2.8125 23.1401L2.8125 5.32764C2.8125 4.9303 3.06299 4.57617 3.4375 4.44373C4.70947 3.9942 6.07715 3.75 7.5 3.75ZM22.5 23.4375C20.0063 23.4375 17.7207 24.3216 15.9375 25.7946L15.9375 5.66608C17.832 4.45349 20.0845 3.75 22.5 3.75C23.9229 3.75 25.2905 3.9942 26.5625 4.44373C26.937 4.57617 27.1875 4.9303 27.1875 5.32764L27.1875 23.1401C27.1875 23.4445 27.0396 23.7299 26.7915 23.9056C26.543 24.0813 26.2246 24.1255 25.9375 24.024C24.8638 23.6445 23.707 23.4375 22.5 23.4375Z" fill="#CAFF33" fill-opacity="1.000000" fill-rule="evenodd"/>
	</g>
</svg>
