<svg width="30.000000" height="30.000000" viewBox="0 0 30 30" fill="none" xmlns="http://www.w3.org/2000/svg" xmlns:xlink="http://www.w3.org/1999/xlink">
	<desc>
			Created with Pixso.
	</desc>
	<defs>
		<clipPath id="clip101_138">
			<rect id="Icon" width="30.000000" height="30.000000" fill="white" fill-opacity="0"/>
		</clipPath>
	</defs>
	<g clip-path="url(#clip101_138)">
		<path id="Subtract" d="M2.8125 2.8125C2.29492 2.8125 1.875 3.23224 1.875 3.75C1.875 4.26776 2.29492 4.6875 2.8125 4.6875L3.75 4.6875L3.75 17.8125C3.75 19.8836 5.42871 21.5625 7.5 21.5625L9.01172 21.5625L7.54834 25.9535C7.38428 26.4447 7.6499 26.9757 8.14111 27.1394C8.63232 27.3031 9.16309 27.0377 9.32666 26.5465L9.73828 25.3125L20.2617 25.3125L20.6733 26.5465C20.8369 27.0377 21.3677 27.3031 21.8589 27.1394C22.3501 26.9757 22.6157 26.4447 22.4517 25.9535L20.9883 21.5625L22.5 21.5625C24.5713 21.5625 26.25 19.8836 26.25 17.8125L26.25 4.6875L27.1875 4.6875C27.7051 4.6875 28.125 4.26776 28.125 3.75C28.125 3.23224 27.7051 2.8125 27.1875 2.8125L2.8125 2.8125ZM10.3633 23.4375L10.9883 21.5625L19.0117 21.5625L19.6367 23.4375L10.3633 23.4375ZM19.6875 8.4375C19.6875 7.91974 19.2676 7.5 18.75 7.5C18.2324 7.5 17.8125 7.91974 17.8125 8.4375L17.8125 15.9375C17.8125 16.4553 18.2324 16.875 18.75 16.875C19.2676 16.875 19.6875 16.4553 19.6875 15.9375L19.6875 8.4375ZM15.9375 11.25C15.9375 10.7322 15.5176 10.3125 15 10.3125C14.4824 10.3125 14.0625 10.7322 14.0625 11.25L14.0625 15.9375C14.0625 16.4553 14.4824 16.875 15 16.875C15.5176 16.875 15.9375 16.4553 15.9375 15.9375L15.9375 11.25ZM12.1875 14.0625C12.1875 13.5447 11.7676 13.125 11.25 13.125C10.7324 13.125 10.3125 13.5447 10.3125 14.0625L10.3125 15.9375C10.3125 16.4553 10.7324 16.875 11.25 16.875C11.7676 16.875 12.1875 16.4553 12.1875 15.9375L12.1875 14.0625Z" fill="#CAFF33" fill-opacity="1.000000" fill-rule="evenodd"/>
	</g>
</svg>
