<svg width="30.000000" height="30.000000" viewBox="0 0 30 30" fill="none" xmlns="http://www.w3.org/2000/svg" xmlns:xlink="http://www.w3.org/1999/xlink">
	<desc>
			Created with Pixso.
	</desc>
	<defs>
		<clipPath id="clip101_128">
			<rect id="Icon" width="30.000000" height="30.000000" fill="white" fill-opacity="0"/>
		</clipPath>
	</defs>
	<g clip-path="url(#clip101_128)">
		<path id="Union" d="M14.48 2.96997C14.7949 2.76001 15.2051 2.76001 15.52 2.96997L26.77 10.47C27.2012 10.7571 27.3174 11.3392 27.0303 11.77C26.7432 12.2009 26.1606 12.3173 25.73 12.03L15 4.87671L4.27002 12.03C3.83936 12.3173 3.25732 12.2009 2.97021 11.77C2.68262 11.3392 2.79932 10.7571 3.22998 10.47L14.48 2.96997ZM16.4062 8.4375C16.4062 9.21417 15.7769 9.84375 15 9.84375C14.2231 9.84375 13.5938 9.21417 13.5938 8.4375C13.5938 7.66083 14.2231 7.03125 15 7.03125C15.7769 7.03125 16.4062 7.66083 16.4062 8.4375ZM25.3125 12.9156L25.3125 25.3125L26.25 25.3125C26.7676 25.3125 27.1875 25.7322 27.1875 26.25C27.1875 26.7678 26.7676 27.1875 26.25 27.1875L3.75 27.1875C3.23242 27.1875 2.8125 26.7678 2.8125 26.25C2.8125 25.7322 3.23242 25.3125 3.75 25.3125L4.6875 25.3125L4.6875 12.9156C4.6875 12.454 5.02344 12.061 5.47949 11.9894C8.58203 11.5026 11.7617 11.25 15 11.25C18.2383 11.25 21.418 11.5026 24.5205 11.9894C24.9766 12.061 25.3125 12.454 25.3125 12.9156ZM11.25 15.9375C11.25 15.4197 10.8301 15 10.3125 15C9.79492 15 9.375 15.4197 9.375 15.9375L9.375 24.375C9.375 24.8928 9.79492 25.3125 10.3125 25.3125C10.8301 25.3125 11.25 24.8928 11.25 24.375L11.25 15.9375ZM15.9375 15.9375C15.9375 15.4197 15.5176 15 15 15C14.4824 15 14.0625 15.4197 14.0625 15.9375L14.0625 24.375C14.0625 24.8928 14.4824 25.3125 15 25.3125C15.5176 25.3125 15.9375 24.8928 15.9375 24.375L15.9375 15.9375ZM19.6875 15C20.2051 15 20.625 15.4197 20.625 15.9375L20.625 24.375C20.625 24.8928 20.2051 25.3125 19.6875 25.3125C19.1699 25.3125 18.75 24.8928 18.75 24.375L18.75 15.9375C18.75 15.4197 19.1699 15 19.6875 15Z" fill="#CAFF33" fill-opacity="1.000000" fill-rule="evenodd"/>
	</g>
</svg>
