<svg width="30.000000" height="30.000000" viewBox="0 0 30 30" fill="none" xmlns="http://www.w3.org/2000/svg" xmlns:xlink="http://www.w3.org/1999/xlink">
	<desc>
			Created with Pixso.
	</desc>
	<defs>
		<clipPath id="clip101_97">
			<rect id="Frame" width="22.627651" height="28.000000" transform="translate(4.000000 1.000000)" fill="white" fill-opacity="0"/>
		</clipPath>
	</defs>
	<rect id="Frame" width="22.627651" height="28.000000" transform="translate(4.000000 1.000000)" fill="#FFFFFF" fill-opacity="0"/>
	<g clip-path="url(#clip101_97)">
		<path id="Vector" d="M17.6919 6.87817C17.7246 6.91663 17.7305 6.92761 17.7358 6.92761C18.2803 7.00464 18.5332 7.4115 18.8247 7.81848C19.1602 8.2804 19.5615 8.70374 19.9902 9.08862C21.1177 10.106 21.8105 11.3376 22.0415 12.8389C22.4429 15.4673 20.936 18.1672 18.4619 19.2175C14.7061 20.8121 10.5103 18.3872 10.0762 14.329C9.84521 12.168 10.6367 10.3809 12.2866 8.97314C12.8198 8.51685 13.2651 7.98889 13.6338 7.38953C13.6997 7.27954 13.8208 7.19153 13.936 7.1366C14.123 7.04858 14.332 6.99915 14.5684 6.91663C14.4917 6.82312 14.4365 6.7572 14.376 6.69116C14.0078 6.31177 13.6392 5.92139 13.2651 5.55298C13.1333 5.42102 13.0728 5.28345 13.0781 5.09656C13.0894 4.31567 13.084 3.54041 13.084 2.75952C13.084 2.44604 13.4688 1.94568 13.7822 1.88525C14.1396 1.81372 14.5078 1.77527 14.8652 1.70374C14.9697 1.68176 15.0854 1.61572 15.146 1.53333C15.6685 0.829468 16.5864 0.823975 17.1035 1.52234C17.1748 1.61572 17.3125 1.68726 17.4277 1.71472C17.7578 1.78625 18.0933 1.82471 18.4287 1.88525C18.7642 1.95117 19.1216 2.38562 19.1216 2.72656C19.1216 3.51282 19.1162 4.30469 19.127 5.09106C19.1323 5.29443 19.0664 5.43201 18.9292 5.57495C18.5112 5.99829 18.1099 6.43274 17.6919 6.87817ZM15.3823 9.94104C15.3657 10.007 15.3491 10.0455 15.355 10.0785C15.4263 10.4469 15.2559 10.6063 14.915 10.7438C14.2661 11.0133 13.9746 11.5576 13.9912 12.256C14.0078 12.9489 14.3813 13.3777 15.0083 13.6032C15.2832 13.7022 15.5693 13.7737 15.8442 13.8671C16.0972 13.9496 16.3501 14.0321 16.5923 14.1311C16.7954 14.2136 16.9111 14.373 16.8892 14.604C16.8672 14.8405 16.7188 14.9779 16.5098 15.0164C16.2949 15.0604 16.064 15.0989 15.8608 15.0494C15.4648 14.9559 15.0854 14.7964 14.6675 14.6535C14.4805 14.9009 14.2661 15.1814 14.0078 15.5278C14.3979 15.6982 14.7334 15.8742 15.0908 15.9952C15.2944 16.0612 15.377 16.1492 15.3491 16.3581C15.333 16.5066 15.3438 16.6606 15.3438 16.831C15.6572 16.831 15.9214 16.831 16.1851 16.831C16.5645 16.831 16.5811 16.831 16.5591 16.4406C16.5479 16.1987 16.603 16.0667 16.8672 16.0337C17.0044 16.0172 17.1421 15.9402 17.2686 15.8687C17.8511 15.5498 18.0933 15.0384 18.082 14.3895C18.0713 13.7737 17.7632 13.3503 17.2134 13.1028C16.9658 12.9929 16.7021 12.9103 16.438 12.8224C16.1084 12.7124 15.7783 12.6134 15.4482 12.4924C15.2446 12.4155 15.1626 12.2505 15.1787 12.0305C15.1953 11.8215 15.3218 11.6786 15.5142 11.6456C15.7451 11.6072 15.9927 11.5851 16.2183 11.6237C16.4932 11.6731 16.7515 11.7996 17.043 11.8986C17.2246 11.6182 17.4116 11.3212 17.6313 10.9747C17.3784 10.8593 17.1641 10.7163 16.9331 10.6779C16.6084 10.6228 16.5098 10.4744 16.5479 10.1665C16.5591 10.095 16.46 9.95203 16.3994 9.94653C16.0698 9.93005 15.7231 9.94104 15.3823 9.94104Z" fill="#CAFF33" fill-opacity="1.000000" fill-rule="nonzero"/>
		<path id="Vector" d="M15.6797 28.989C14.5083 28.989 13.3315 28.956 12.1602 29C11.374 29.0275 10.7031 28.7911 10.0708 28.3732C9.17432 27.7737 8.35498 27.0919 7.64014 26.2781C6.58447 25.0739 5.51758 23.8696 4.46191 22.6653C3.59863 21.6756 3.98877 20.2129 5.2207 19.8115C5.36377 19.762 5.52881 19.7455 5.67725 19.7455C6.65576 19.74 7.64014 19.7345 8.61914 19.751C8.75635 19.751 8.92139 19.8224 9.02051 19.916C9.69141 20.5648 10.3511 21.2302 11.0054 21.8955C11.1372 22.0275 11.2583 22.055 11.4453 22.0275C11.8413 21.967 12.248 21.912 12.6494 21.912C14.5029 21.901 16.3501 21.9066 18.2036 21.9066C18.8359 21.9066 19.3032 22.231 19.4683 22.7698C19.7212 23.5837 19.1274 24.348 18.2197 24.3535C16.9937 24.359 15.7617 24.3535 14.5356 24.3535C14.3159 24.3535 14.0957 24.348 13.876 24.3535C13.48 24.3645 13.2217 24.6174 13.2158 24.9749C13.2158 25.3378 13.4746 25.6127 13.8647 25.6127C15.8169 25.6182 17.769 25.6182 19.7212 25.6127C20.1172 25.6127 20.4028 25.3928 20.6777 25.1288C21.9536 23.9026 23.2295 22.6763 24.5107 21.4556C25.0327 20.9552 25.7256 20.9332 26.2207 21.3787C26.7539 21.8625 26.7651 22.6434 26.2261 23.1877C25.6597 23.7651 25.0825 24.3095 24.5107 24.8649C23.2456 26.0911 21.981 27.3119 20.7217 28.5381C20.4141 28.835 20.0732 28.989 19.6387 28.989C18.3188 28.9835 16.999 28.989 15.6797 28.989Z" fill="#CAFF33" fill-opacity="1.000000" fill-rule="nonzero"/>
		<path id="Vector" d="M9.13574 5.75098C9.66895 6.2843 10.2026 6.81775 10.7251 7.34009C10.4004 7.66455 10.0596 8.00549 9.71875 8.34094C9.21289 7.81848 8.6792 7.26868 8.16797 6.74072C8.47021 6.43286 8.81152 6.08093 9.13574 5.75098Z" fill="#CAFF33" fill-opacity="1.000000" fill-rule="nonzero"/>
		<path id="Vector" d="M23.0205 5.75098C23.3447 6.07544 23.6802 6.42188 23.9937 6.73523C23.4712 7.25769 22.9268 7.802 22.3989 8.32446C22.0801 8.00549 21.7446 7.65906 21.4092 7.32361C21.9316 6.81226 22.4702 6.2843 23.0205 5.75098Z" fill="#CAFF33" fill-opacity="1.000000" fill-rule="nonzero"/>
		<path id="Vector" d="M24.2852 14.4171C24.2852 13.9497 24.2798 13.5208 24.2905 13.0919C24.2905 13.0369 24.395 12.9379 24.4502 12.9379C25.1211 12.9269 25.7861 12.9269 26.457 12.9379C26.5122 12.9379 26.6167 13.0204 26.6167 13.0644C26.6274 13.5098 26.6221 13.9552 26.6221 14.4171C25.8359 14.4171 25.0767 14.4171 24.2852 14.4171Z" fill="#CAFF33" fill-opacity="1.000000" fill-rule="nonzero"/>
		<path id="Vector" d="M7.85449 14.4336C7.0957 14.4336 6.38623 14.4391 5.67139 14.4281C5.6167 14.4281 5.52881 14.3236 5.52295 14.2631C5.51221 13.8782 5.50684 13.4933 5.52295 13.1084C5.52295 13.0479 5.6333 12.9379 5.69336 12.9379C6.35352 12.9269 7.01318 12.9269 7.67334 12.9379C7.7334 12.9379 7.84375 13.0259 7.84375 13.0809C7.85986 13.5098 7.85449 13.9497 7.85449 14.4336Z" fill="#CAFF33" fill-opacity="1.000000" fill-rule="nonzero"/>
	</g>
</svg>
