<svg width="30.000000" height="30.000000" viewBox="0 0 30 30" fill="none" xmlns="http://www.w3.org/2000/svg" xmlns:xlink="http://www.w3.org/1999/xlink">
	<desc>
			Created with Pixso.
	</desc>
	<defs>
		<clipPath id="clip101_134">
			<rect id="Icon" width="30.000000" height="30.000000" fill="white" fill-opacity="0"/>
		</clipPath>
	</defs>
	<g clip-path="url(#clip101_134)">
		<path id="Subtract" d="M2.8125 15C2.8125 8.26903 8.26904 2.8125 15 2.8125C21.731 2.8125 27.1875 8.26903 27.1875 15C27.1875 21.731 21.731 27.1875 15 27.1875C8.26904 27.1875 2.8125 21.731 2.8125 15ZM15 6.5625C15.5176 6.5625 15.9375 6.98224 15.9375 7.5L15.9375 8.51959C16.7212 8.65846 17.4683 8.9735 18.0864 9.46469L18.605 9.87668C19.0103 10.1987 19.0781 10.7885 18.7559 11.1939C18.4341 11.5993 17.8442 11.6669 17.439 11.3448L16.9199 10.9328C16.6362 10.7073 16.2988 10.5432 15.9375 10.4407L15.9375 14.137C16.7524 14.2679 17.5479 14.5738 18.2144 15.0737C19.1455 15.7723 19.6875 16.7543 19.6875 17.8125C19.6875 18.8706 19.1455 19.8527 18.2144 20.5512C17.5479 21.0511 16.7524 21.357 15.9375 21.4879L15.9375 22.5C15.9375 23.0178 15.5176 23.4375 15 23.4375C14.4824 23.4375 14.0625 23.0178 14.0625 22.5L14.0625 21.4879C13.2476 21.357 12.4526 21.0511 11.7861 20.5512L10.6875 19.7272C10.2734 19.4165 10.1895 18.8289 10.5 18.4147C10.8105 18.0005 11.3984 17.9166 11.8125 18.2272L12.9111 19.0512C13.2329 19.2926 13.6284 19.4714 14.0625 19.577L14.0625 15.8554C13.291 15.7188 12.5415 15.4092 11.9131 14.9103C11.0229 14.2029 10.522 13.2234 10.522 12.1875C10.522 11.1516 11.0229 10.1721 11.9131 9.46469C12.5317 8.97342 13.2788 8.65836 14.0625 8.51953L14.0625 7.5C14.0625 6.98224 14.4824 6.5625 15 6.5625ZM13.0796 10.9328C13.3633 10.7072 13.7007 10.5431 14.0625 10.4406L14.0625 13.9343C13.6938 13.8297 13.3574 13.663 13.0796 13.4422C12.5874 13.0512 12.397 12.5912 12.397 12.1875C12.397 11.7838 12.5874 11.3238 13.0796 10.9328ZM15.9375 19.577L15.9375 16.0479C16.3716 16.1535 16.7671 16.3322 17.0894 16.5737C17.6221 16.9735 17.8125 17.4311 17.8125 17.8125C17.8125 18.1939 17.6221 18.6514 17.0894 19.0512C16.7671 19.2927 16.3716 19.4715 15.9375 19.577Z" fill="#CAFF33" fill-opacity="1.000000" fill-rule="evenodd"/>
	</g>
</svg>
