<svg width="30.000000" height="30.000000" viewBox="0 0 30 30" fill="none" xmlns="http://www.w3.org/2000/svg" xmlns:xlink="http://www.w3.org/1999/xlink">
	<desc>
			Created with Pixso.
	</desc>
	<defs>
		<clipPath id="clip101_121">
			<rect id="Frame" width="27.000000" height="20.000000" transform="translate(1.000000 5.000000)" fill="white" fill-opacity="0"/>
		</clipPath>
	</defs>
	<rect id="Frame" width="27.000000" height="20.000000" transform="translate(1.000000 5.000000)" fill="#FFFFFF" fill-opacity="0"/>
	<g clip-path="url(#clip101_121)">
		<path id="Vector" d="M24.6577 14.0185C24.6577 14.7664 24.6675 15.5093 24.6523 16.2571C24.6426 16.6606 24.7578 17.0148 24.9688 17.3494C25.5107 18.2252 26.2285 18.9583 26.9561 19.6815C27.2271 19.9521 27.5083 20.2079 27.7939 20.4589C27.9346 20.5818 28 20.7098 28 20.9017C27.9897 21.7233 27.9897 22.54 27.9951 23.3617C28 24.0455 27.6987 24.5573 27.0713 24.8426C26.4292 25.1329 25.8267 25.0099 25.2998 24.5621C24.2109 23.6274 23.127 22.6876 22.043 21.7528C21.3052 21.1132 20.5723 20.4637 19.8198 19.8438C19.5537 19.6224 19.2373 19.4601 18.9312 19.2928C18.4795 19.0468 17.9927 18.9139 17.4658 18.9337C17.0845 18.9484 16.6929 18.9533 16.3115 18.9238C15.7544 18.8795 15.3579 18.5007 15.2827 17.9791C15.2124 17.5215 15.4888 17.0295 15.9502 16.8524C16.126 16.7836 16.3218 16.754 16.5122 16.754C17.9575 16.7442 19.4033 16.7491 20.8535 16.7491C21.3955 16.7491 21.5913 16.5573 21.5913 16.0209C21.5913 14.9385 21.5864 13.8561 21.5913 12.7737C21.5962 12.3604 21.4507 12.0357 21.1343 11.7552C19.313 10.1514 17.501 8.5376 15.6841 6.92383C15.1978 6.49084 15.1421 5.8512 15.5488 5.38379C15.9502 4.91638 16.6079 4.87207 17.1245 5.26575C19.4482 7.03699 21.7671 8.80811 24.1006 10.5696C24.4868 10.8599 24.6675 11.2141 24.6626 11.6815C24.6523 12.4589 24.6577 13.2362 24.6577 14.0185Z" fill="#CAFF33" fill-opacity="1.000000" fill-rule="nonzero"/>
		<path id="Vector" d="M1.00537 22.2053C1.00537 21.7625 1.01025 21.3197 1.00049 20.8769C0.995117 20.7047 1.06543 20.5916 1.18115 20.4734C1.93896 19.7109 2.68652 18.9384 3.4292 18.161C3.58496 17.9987 3.7002 17.8068 3.83594 17.6297C4.19189 17.1524 4.35791 16.6309 4.34277 16.0208C4.3125 14.6137 4.34766 13.2017 4.32764 11.7896C4.31738 11.2336 4.51807 10.84 4.9751 10.4956C7.29346 8.76379 9.58691 7.00232 11.8906 5.24597C12.3726 4.87695 13.0347 4.93591 13.4263 5.37878C13.8276 5.83142 13.7925 6.48083 13.3257 6.90393C12.6182 7.54358 11.9004 8.16846 11.188 8.8031C10.0586 9.80188 8.92969 10.8055 7.80029 11.8043C7.53467 12.0405 7.40381 12.3259 7.40381 12.6703C7.40381 13.8167 7.39893 14.963 7.40381 16.1143C7.40381 16.5374 7.625 16.7441 8.06152 16.7441C9.55176 16.749 11.0376 16.7441 12.5278 16.749C13.2305 16.749 13.7222 17.2311 13.7075 17.8806C13.6973 18.3775 13.3311 18.8253 12.8242 18.899C12.5229 18.9434 12.2065 18.963 11.9004 18.9335C10.8716 18.8351 10.0034 19.2041 9.23584 19.8043C8.45264 20.4144 7.72021 21.0934 6.97217 21.7379C5.87354 22.6826 4.7793 23.6371 3.67529 24.5768C2.78174 25.3394 1.46191 25.0048 1.08057 23.9175C1.03027 23.7797 1.01514 23.6272 1.01025 23.4846C1.00049 23.0614 1.00537 22.6334 1.00537 22.2053Z" fill="#CAFF33" fill-opacity="1.000000" fill-rule="nonzero"/>
		<path id="Vector" d="M15.2129 15.0369C15.2129 15.2731 15.2129 15.4945 15.2129 15.7356C14.791 15.7356 14.3896 15.7356 13.9531 15.7356C13.9531 15.5437 13.9482 15.3568 13.9531 15.1697C13.958 15.032 13.918 14.973 13.7725 14.9385C13.356 14.8401 12.9692 14.6729 12.6079 14.3875C12.8389 14.0873 13.0596 13.802 13.2607 13.5363C13.6421 13.679 13.9883 13.8463 14.3545 13.9299C14.6206 13.989 14.9165 13.9496 15.1929 13.9053C15.4033 13.8708 15.5391 13.7085 15.5542 13.4871C15.5742 13.2608 15.4536 13.1033 15.2529 13.0246C14.9116 12.8967 14.5552 12.7983 14.209 12.6851C13.958 12.6015 13.6973 12.5277 13.4512 12.4244C12.874 12.1833 12.5679 11.7552 12.5527 11.1255C12.5376 10.4662 12.7886 9.93481 13.3911 9.64941C13.7822 9.46252 14.1187 9.32471 13.9229 8.77856C14.3496 8.77856 14.7207 8.77368 15.0972 8.78845C15.1377 8.78845 15.2075 8.9115 15.2075 8.98035C15.2329 9.39856 15.2329 9.38867 15.6294 9.52649C15.8604 9.60522 16.0811 9.71838 16.332 9.83154C16.1211 10.1514 15.9507 10.4318 15.7598 10.6974C15.7295 10.7368 15.6094 10.7319 15.5391 10.7122C15.2075 10.6285 14.8867 10.5203 14.5552 10.4563C14.4248 10.4318 14.2744 10.4711 14.1387 10.5056C13.938 10.5597 13.8027 10.6925 13.7876 10.9091C13.7725 11.1206 13.8677 11.283 14.0635 11.3617C14.3193 11.465 14.5806 11.5437 14.8413 11.6273C15.1274 11.7208 15.4233 11.7897 15.6997 11.8931C16.4976 12.1981 16.8188 12.6802 16.7783 13.4724C16.7383 14.2005 16.2817 14.7417 15.5288 14.9533C15.4385 14.9828 15.3433 15.0074 15.2129 15.0369Z" fill="#CAFF33" fill-opacity="1.000000" fill-rule="nonzero"/>
	</g>
</svg>
