<svg width="30.000000" height="30.000000" viewBox="0 0 30 30" fill="none" xmlns="http://www.w3.org/2000/svg" xmlns:xlink="http://www.w3.org/1999/xlink">
	<desc>
			Created with Pixso.
	</desc>
	<defs>
		<clipPath id="clip101_136">
			<rect id="Icon" width="30.000000" height="30.000000" fill="white" fill-opacity="0"/>
		</clipPath>
	</defs>
	<g clip-path="url(#clip101_136)">
		<path id="Subtract" d="M2.8125 3.75C2.8125 3.23224 3.23242 2.8125 3.75 2.8125L18.75 2.8125C19.2676 2.8125 19.6875 3.23224 19.6875 3.75C19.6875 4.26776 19.2676 4.6875 18.75 4.6875L18.75 27.1875L2.8125 27.1875C2.29492 27.1875 1.875 26.7678 1.875 26.25C1.875 25.7322 2.29492 25.3125 2.8125 25.3125L3.75 25.3125L3.75 4.6875C3.23242 4.6875 2.8125 4.26776 2.8125 3.75ZM8.4375 7.5C7.91992 7.5 7.5 7.91974 7.5 8.4375C7.5 8.95526 7.91992 9.375 8.4375 9.375L9.375 9.375C9.89258 9.375 10.3125 8.95526 10.3125 8.4375C10.3125 7.91974 9.89258 7.5 9.375 7.5L8.4375 7.5ZM12.1875 8.4375C12.1875 7.91974 12.6074 7.5 13.125 7.5L14.0625 7.5C14.5801 7.5 15 7.91974 15 8.4375C15 8.95526 14.5801 9.375 14.0625 9.375L13.125 9.375C12.6074 9.375 12.1875 8.95526 12.1875 8.4375ZM20.625 27.1875L20.625 8.4375L26.25 8.4375C26.7676 8.4375 27.1875 8.85724 27.1875 9.375C27.1875 9.89276 26.7676 10.3125 26.25 10.3125L26.25 25.3125L27.1875 25.3125C27.7051 25.3125 28.125 25.7322 28.125 26.25C28.125 26.7678 27.7051 27.1875 27.1875 27.1875L20.625 27.1875ZM7.5 12.1875C7.5 11.6697 7.91992 11.25 8.4375 11.25L9.375 11.25C9.89258 11.25 10.3125 11.6697 10.3125 12.1875C10.3125 12.7053 9.89258 13.125 9.375 13.125L8.4375 13.125C7.91992 13.125 7.5 12.7053 7.5 12.1875ZM13.125 11.25C12.6074 11.25 12.1875 11.6697 12.1875 12.1875C12.1875 12.7053 12.6074 13.125 13.125 13.125L14.0625 13.125C14.5801 13.125 15 12.7053 15 12.1875C15 11.6697 14.5801 11.25 14.0625 11.25L13.125 11.25ZM23.4375 13.125C22.9199 13.125 22.5 13.5447 22.5 14.0625L22.5 14.0719C22.5 14.5896 22.9199 15.0094 23.4375 15.0094L23.4468 15.0094C23.9648 15.0094 24.3843 14.5896 24.3843 14.0719L24.3843 14.0625C24.3843 13.5447 23.9648 13.125 23.4468 13.125L23.4375 13.125ZM8.4375 15C7.91992 15 7.5 15.4197 7.5 15.9375C7.5 16.4553 7.91992 16.875 8.4375 16.875L9.375 16.875C9.89258 16.875 10.3125 16.4553 10.3125 15.9375C10.3125 15.4197 9.89258 15 9.375 15L8.4375 15ZM12.1875 15.9375C12.1875 15.4197 12.6074 15 13.125 15L14.0625 15C14.5801 15 15 15.4197 15 15.9375C15 16.4553 14.5801 16.875 14.0625 16.875L13.125 16.875C12.6074 16.875 12.1875 16.4553 12.1875 15.9375ZM22.5 17.8125C22.5 17.2947 22.9199 16.875 23.4375 16.875L23.4468 16.875C23.9648 16.875 24.3843 17.2947 24.3843 17.8125L24.3843 17.8219C24.3843 18.3396 23.9648 18.7594 23.4468 18.7594L23.4375 18.7594C22.9199 18.7594 22.5 18.3396 22.5 17.8219L22.5 17.8125ZM8.4375 21.5625L8.4375 24.375C8.4375 24.8928 8.85742 25.3125 9.375 25.3125L13.125 25.3125C13.6426 25.3125 14.0625 24.8928 14.0625 24.375L14.0625 21.5625C14.0625 21.0447 13.6426 20.625 13.125 20.625L9.375 20.625C8.85742 20.625 8.4375 21.0447 8.4375 21.5625ZM23.4375 20.625C22.9199 20.625 22.5 21.0447 22.5 21.5625L22.5 21.5719C22.5 22.0896 22.9199 22.5094 23.4375 22.5094L23.4468 22.5094C23.9648 22.5094 24.3843 22.0896 24.3843 21.5719L24.3843 21.5625C24.3843 21.0447 23.9648 20.625 23.4468 20.625L23.4375 20.625Z" fill="#CAFF33" fill-opacity="1.000000" fill-rule="evenodd"/>
	</g>
</svg>
