<svg width="24.000000" height="24.000000" viewBox="0 0 24 24" fill="none" xmlns="http://www.w3.org/2000/svg" xmlns:xlink="http://www.w3.org/1999/xlink">
	<desc>
			Created with Pixso.
	</desc>
	<defs/>
	<path id="Vector" d="M22.2236 0L1.77197 0C0.791992 0 0 0.773438 0 1.72974L0 22.2656C0 23.2219 0.791992 24 1.77197 24L22.2236 24C23.2031 24 24 23.2219 24 22.2703L24 1.72974C24 0.773438 23.2031 0 22.2236 0ZM7.12012 20.4517L3.55762 20.4517L3.55762 8.99536L7.12012 8.99536L7.12012 20.4517ZM5.33887 7.43433C4.19531 7.43433 3.27197 6.51099 3.27197 5.37183C3.27197 4.23291 4.19531 3.30933 5.33887 3.30933C6.47803 3.30933 7.40137 4.23291 7.40137 5.37183C7.40137 6.50635 6.47803 7.43433 5.33887 7.43433ZM20.4517 20.4517L16.8936 20.4517L16.8936 14.8828C16.8936 13.5562 16.8701 11.8452 15.042 11.8452C13.1904 11.8452 12.9092 13.2937 12.9092 14.7891L12.9092 20.4517L9.35645 20.4517L9.35645 8.99536L12.7686 8.99536L12.7686 10.561L12.8154 10.561C13.2891 9.66089 14.4517 8.70947 16.1812 8.70947C19.7861 8.70947 20.4517 11.0813 20.4517 14.1655L20.4517 20.4517Z" fill="#262626" fill-opacity="1.000000" fill-rule="nonzero"/>
</svg>
