<svg width="24.000000" height="19.500732" viewBox="0 0 24 19.5007" fill="none" xmlns="http://www.w3.org/2000/svg" xmlns:xlink="http://www.w3.org/1999/xlink">
	<desc>
			Created with Pixso.
	</desc>
	<defs/>
	<path id="Vector" d="M7.55029 19.5007C16.6045 19.5007 21.5581 11.9973 21.5581 5.49268C21.5581 5.28174 21.5537 5.06592 21.5444 4.85498C22.5078 4.1582 23.3394 3.29492 24 2.30615C23.1025 2.70532 22.1494 2.96606 21.1738 3.07959C22.2012 2.46362 22.9707 1.49609 23.3389 0.356445C22.3726 0.929199 21.3154 1.33325 20.2134 1.55127C19.4707 0.762207 18.4888 0.239746 17.4199 0.0646973C16.3506 -0.110352 15.2534 0.0717773 14.2979 0.582764C13.3423 1.09399 12.582 1.90552 12.1338 2.89209C11.686 3.87866 11.5752 4.98535 11.8193 6.04102C9.8623 5.94287 7.94775 5.43433 6.2002 4.54883C4.45215 3.66333 2.90967 2.42017 1.67285 0.900146C1.04443 1.98389 0.852051 3.26636 1.13525 4.48682C1.41797 5.70728 2.15527 6.77417 3.19629 7.4707C2.41455 7.4458 1.6499 7.23535 0.96582 6.85669L0.96582 6.91748C0.964844 8.05493 1.35791 9.15723 2.07812 10.0376C2.79834 10.9177 3.80127 11.5212 4.91602 11.7456C4.19189 11.9438 3.43213 11.9727 2.69482 11.8301C3.00928 12.8081 3.62158 13.6636 4.4458 14.2771C5.27002 14.8906 6.26514 15.2314 7.29248 15.252C5.54834 16.6218 3.39404 17.3647 1.17676 17.3613C0.783203 17.3608 0.390625 17.3367 0 17.2891C2.25293 18.7344 4.87354 19.5022 7.55029 19.5007Z" fill="#262626" fill-opacity="1.000000" fill-rule="nonzero"/>
</svg>
