<svg width="31.571289" height="26.700439" viewBox="0 0 31.5713 26.7004" fill="none" xmlns="http://www.w3.org/2000/svg" xmlns:xlink="http://www.w3.org/1999/xlink">
	<desc>
			Created with Pixso.
	</desc>
	<defs/>
	<path id="Vector" d="M13.665 17.5386C12.7104 17.5386 12.1514 17.0012 12.1514 16.0367L12.1514 14.9208C8.1416 14.6453 4.146 13.8186 0 12.2343L0 9.96106C5.10059 12.2205 10.2148 13.0195 15.7788 13.0195C21.3569 13.0195 26.4707 12.2205 31.5713 9.96106L31.5713 12.2343C27.4258 13.8186 23.4297 14.6453 19.4204 14.9208L19.4204 16.0367C19.4204 17.0012 18.8608 17.5386 17.9062 17.5386L13.665 17.5386ZM4.21387 26.7004L27.3574 26.7004C30.1802 26.7004 31.5713 25.3228 31.5713 22.4983L31.5713 9.09302C31.5713 6.26868 30.1802 4.89099 27.3574 4.89099L4.21387 4.89099C1.40479 4.89099 0 6.26868 0 9.09302L0 22.4983C0 25.3228 1.40479 26.7004 4.21387 26.7004ZM8.86475 6.0896L10.9785 6.0896L10.9785 3.651C10.9785 2.60388 11.5923 2.01147 12.6558 2.01147L18.9155 2.01147C19.9795 2.01147 20.5796 2.60388 20.5796 3.651L20.5796 6.06201L22.6934 6.06201L22.6934 3.80249C22.6934 1.2124 21.3433 0 18.8745 0L12.6831 0C10.3511 0 8.86475 1.2124 8.86475 3.80249L8.86475 6.0896Z" fill="#CAFF33" fill-opacity="1.000000" fill-rule="nonzero"/>
</svg>
