<svg width="29.750000" height="25.500000" viewBox="0 0 29.75 25.5" fill="none" xmlns="http://www.w3.org/2000/svg" xmlns:xlink="http://www.w3.org/1999/xlink">
	<desc>
			Created with Pixso.
	</desc>
	<defs/>
	<path id="Union" d="M0 2.65625C0 1.18921 1.18945 0 2.65625 0L27.0938 0C28.5605 0 29.75 1.18921 29.75 2.65625L29.75 3.71875C29.75 5.18579 28.5605 6.375 27.0938 6.375L2.65625 6.375C1.18945 6.375 0 5.18579 0 3.71875L0 2.65625ZM3.0127 21.4995L2.24805 8.5L27.5015 8.5L26.7368 21.4995C26.605 23.746 24.7446 25.5 22.4941 25.5L7.25537 25.5C5.00488 25.5 3.14502 23.746 3.0127 21.4995ZM15.9375 11.6875C15.9375 11.1007 15.4619 10.625 14.875 10.625C14.2881 10.625 13.8125 11.1007 13.8125 11.6875L13.8125 18.6849L11.3765 16.2487C10.9614 15.8337 10.2886 15.8337 9.87354 16.2487C9.45898 16.6636 9.45898 17.3364 9.87354 17.7513L14.1235 22.0013C14.5386 22.4163 15.2114 22.4163 15.6265 22.0013L19.8765 17.7513C20.291 17.3364 20.291 16.6636 19.8765 16.2487C19.4614 15.8337 18.7886 15.8337 18.3735 16.2487L15.9375 18.6849L15.9375 11.6875Z" fill="#CAFF33" fill-opacity="1.000000" fill-rule="evenodd"/>
</svg>
