<svg width="29.750000" height="26.410034" viewBox="0 0 29.75 26.41" fill="none" xmlns="http://www.w3.org/2000/svg" xmlns:xlink="http://www.w3.org/1999/xlink">
	<desc>
			Created with Pixso.
	</desc>
	<defs/>
	<path id="Union" d="M0 2.65625C0 1.18921 1.18945 0 2.65625 0L27.0938 0C28.5605 0 29.75 1.18921 29.75 2.65625L29.75 16.4688C29.75 17.9358 28.5605 19.125 27.0938 19.125L2.65625 19.125C1.18945 19.125 0 17.9358 0 16.4688L0 2.65625ZM9.5625 9.5625C9.5625 6.62854 11.9409 4.25 14.875 4.25C17.8091 4.25 20.1875 6.62854 20.1875 9.5625C20.1875 12.4965 17.8091 14.875 14.875 14.875C11.9409 14.875 9.5625 12.4965 9.5625 9.5625ZM14.875 6.375C13.1147 6.375 11.6875 7.80212 11.6875 9.5625C11.6875 11.3229 13.1147 12.75 14.875 12.75C16.6353 12.75 18.0625 11.3229 18.0625 9.5625C18.0625 7.80212 16.6353 6.375 14.875 6.375ZM4.25 9.5625C4.25 8.97571 4.72559 8.5 5.3125 8.5L5.32324 8.5C5.91016 8.5 6.38574 8.97571 6.38574 9.5625L6.38574 9.57312C6.38574 10.1599 5.91016 10.6356 5.32324 10.6356L5.3125 10.6356C4.72559 10.6356 4.25 10.1599 4.25 9.57312L4.25 9.5625ZM24.4375 8.5C23.8506 8.5 23.375 8.97571 23.375 9.5625L23.375 9.57312C23.375 10.1599 23.8506 10.6356 24.4375 10.6356L24.4482 10.6356C25.0352 10.6356 25.5107 10.1599 25.5107 9.57312L25.5107 9.5625C25.5107 8.97571 25.0352 8.5 24.4482 8.5L24.4375 8.5ZM0 22.3125C0 21.7257 0.475586 21.25 1.0625 21.25L25.5 21.25C26.0869 21.25 26.5625 21.7257 26.5625 22.3125L26.5625 23.7365C26.5625 25.5238 24.8486 26.7736 23.1621 26.3145C16.1221 24.3982 8.7124 23.375 1.0625 23.375C0.475586 23.375 0 22.8993 0 22.3125Z" fill="#CAFF33" fill-opacity="1.000000" fill-rule="evenodd"/>
</svg>
