<svg width="10.300293" height="16.491211" viewBox="0 0 10.3003 16.4912" fill="none" xmlns="http://www.w3.org/2000/svg" xmlns:xlink="http://www.w3.org/1999/xlink">
	<desc>
			Created with Pixso.
	</desc>
	<defs/>
	<path id="Shape" d="M3.81641 0C4.76855 0 5.71777 0 6.66992 0C6.61377 0.644287 6.55469 1.29199 6.50195 1.93628C7.61182 2.01685 8.69385 2.37378 9.66699 2.90259C9.24707 3.95996 8.82324 5.01733 8.39941 6.07471C7.58057 5.37793 6.50195 4.99292 5.42725 5.00684C5.15723 5.01392 4.87744 5.06641 4.65332 5.22046C4.50635 5.32202 4.39746 5.47949 4.36621 5.65454C4.3418 5.79468 4.34863 5.95215 4.42578 6.07837C4.51318 6.21826 4.66748 6.30225 4.82129 6.35498C5.13623 6.4668 5.47607 6.47388 5.80518 6.50903C6.5791 6.60352 7.35645 6.73657 8.08789 7.01318C8.65527 7.23022 9.19775 7.55591 9.58643 8.03198C9.9541 8.46973 10.168 9.02295 10.2485 9.59009C10.3428 10.2449 10.3149 10.9241 10.1118 11.5613C9.9541 12.0725 9.68457 12.5486 9.33447 12.9514C8.60986 13.7917 7.54541 14.2959 6.45312 14.4253C6.48779 15.1152 6.52979 15.8015 6.56836 16.4912C5.66504 16.4912 4.76514 16.4912 3.86523 16.4912C3.90039 15.8083 3.9458 15.1257 3.97754 14.4429C3.25293 14.4185 2.53516 14.2573 1.85938 14.0017C1.20459 13.7532 0.581055 13.4241 0 13.0388C0.427246 11.9395 0.854492 10.8401 1.28516 9.73706C1.77148 10.1467 2.29004 10.5283 2.85693 10.8191C3.46631 11.1306 4.14209 11.3303 4.82812 11.3372C5.15381 11.3408 5.49023 11.3232 5.79834 11.2112C5.9873 11.1411 6.17285 11.0186 6.25684 10.8259C6.34424 10.623 6.3374 10.3674 6.2041 10.1853C6.10986 10.0627 5.97656 9.97876 5.83691 9.91919C5.64746 9.84229 5.45166 9.80005 5.25195 9.76855C4.5166 9.64966 3.77783 9.55151 3.06738 9.32056C2.49658 9.13501 1.93994 8.87573 1.48438 8.47656C1.19727 8.22803 0.959473 7.92334 0.791504 7.58032C0.539062 7.06909 0.444824 6.49146 0.45166 5.92432C0.45166 5.29053 0.581055 4.64624 0.896484 4.0896C1.16943 3.59229 1.58594 3.18628 2.05518 2.87451C2.62256 2.5 3.25635 2.24438 3.90039 2.03784C3.87256 1.3584 3.84424 0.679199 3.81641 0Z" fill="#CAFF33" fill-opacity="1.000000" fill-rule="evenodd"/>
</svg>
