<svg width="24.375000" height="22.044617" viewBox="0 0 24.375 22.0446" fill="none" xmlns="http://www.w3.org/2000/svg" xmlns:xlink="http://www.w3.org/1999/xlink">
	<desc>
			Created with Pixso.
	</desc>
	<defs/>
	<path id="Subtract" d="M4.6875 0C7.10303 0 9.35547 0.703491 11.25 1.91608L11.25 22.0446C9.4668 20.5716 7.18115 19.6875 4.6875 19.6875C3.48047 19.6875 2.32373 19.8945 1.25 20.274C0.962891 20.3755 0.644531 20.3313 0.395996 20.1556C0.147949 19.9799 0 19.6945 0 19.3901L0 1.57764C0 1.1803 0.250488 0.826172 0.625 0.693726C1.89697 0.244202 3.26465 0 4.6875 0ZM19.6875 19.6875C17.1938 19.6875 14.9082 20.5716 13.125 22.0446L13.125 1.91608C15.0195 0.703491 17.272 0 19.6875 0C21.1104 0 22.478 0.244202 23.75 0.693726C24.1245 0.826172 24.375 1.1803 24.375 1.57764L24.375 19.3901C24.375 19.6945 24.2271 19.9799 23.979 20.1556C23.7305 20.3313 23.4121 20.3755 23.125 20.274C22.0513 19.8945 20.8945 19.6875 19.6875 19.6875Z" fill="#CAFF33" fill-opacity="1.000000" fill-rule="evenodd"/>
</svg>
