<svg width="24.375488" height="24.375000" viewBox="0 0 24.3755 24.375" fill="none" xmlns="http://www.w3.org/2000/svg" xmlns:xlink="http://www.w3.org/1999/xlink">
	<desc>
			Created with Pixso.
	</desc>
	<defs/>
	<path id="Union" d="M11.6675 0.157471C11.9824 -0.0524902 12.3926 -0.0524902 12.7075 0.157471L23.9575 7.65747C24.3887 7.94464 24.5049 8.52673 24.2178 8.95752C23.9307 9.38837 23.3481 9.50476 22.9175 9.21753L12.1875 2.06421L1.45752 9.21753C1.02686 9.50476 0.444824 9.38837 0.157715 8.95752C-0.129883 8.52673 -0.0131836 7.94464 0.41748 7.65747L11.6675 0.157471ZM13.5938 5.625C13.5938 6.40167 12.9644 7.03125 12.1875 7.03125C11.4106 7.03125 10.7812 6.40167 10.7812 5.625C10.7812 4.84833 11.4106 4.21875 12.1875 4.21875C12.9644 4.21875 13.5938 4.84833 13.5938 5.625ZM22.5 10.1031L22.5 22.5L23.4375 22.5C23.9551 22.5 24.375 22.9197 24.375 23.4375C24.375 23.9553 23.9551 24.375 23.4375 24.375L0.9375 24.375C0.419922 24.375 0 23.9553 0 23.4375C0 22.9197 0.419922 22.5 0.9375 22.5L1.875 22.5L1.875 10.1031C1.875 9.64148 2.21094 9.24854 2.66699 9.17694C5.76953 8.69012 8.94922 8.4375 12.1875 8.4375C15.4258 8.4375 18.6055 8.69012 21.708 9.17694C22.1641 9.24854 22.5 9.64148 22.5 10.1031ZM8.4375 13.125C8.4375 12.6072 8.01758 12.1875 7.5 12.1875C6.98242 12.1875 6.5625 12.6072 6.5625 13.125L6.5625 21.5625C6.5625 22.0803 6.98242 22.5 7.5 22.5C8.01758 22.5 8.4375 22.0803 8.4375 21.5625L8.4375 13.125ZM13.125 13.125C13.125 12.6072 12.7051 12.1875 12.1875 12.1875C11.6699 12.1875 11.25 12.6072 11.25 13.125L11.25 21.5625C11.25 22.0803 11.6699 22.5 12.1875 22.5C12.7051 22.5 13.125 22.0803 13.125 21.5625L13.125 13.125ZM16.875 12.1875C17.3926 12.1875 17.8125 12.6072 17.8125 13.125L17.8125 21.5625C17.8125 22.0803 17.3926 22.5 16.875 22.5C16.3574 22.5 15.9375 22.0803 15.9375 21.5625L15.9375 13.125C15.9375 12.6072 16.3574 12.1875 16.875 12.1875Z" fill="#CAFF33" fill-opacity="1.000000" fill-rule="evenodd"/>
</svg>
