<svg width="22.627930" height="28.000366" viewBox="0 0 22.6279 28.0004" fill="none" xmlns="http://www.w3.org/2000/svg" xmlns:xlink="http://www.w3.org/1999/xlink">
	<desc>
			Created with Pixso.
	</desc>
	<defs/>
	<path id="Vector" d="M13.6943 5.87622C13.7271 5.91467 13.7329 5.92566 13.7383 5.92566C14.2827 6.00269 14.5356 6.40955 14.8271 6.81653C15.1626 7.27844 15.564 7.70178 15.9927 8.08667C17.1201 9.104 17.813 10.3357 18.0439 11.8369C18.4453 14.4653 16.9385 17.1653 14.4644 18.2156C10.7085 19.8102 6.5127 17.3853 6.07861 13.3271C5.84766 11.1661 6.63916 9.37891 8.28906 7.97119C8.82227 7.51489 9.26758 6.98694 9.63623 6.38757C9.70215 6.27759 9.82324 6.18958 9.93848 6.13464C10.1255 6.04663 10.3345 5.99719 10.5708 5.91467C10.4941 5.82117 10.439 5.75525 10.3784 5.68921C10.0103 5.30981 9.6416 4.91943 9.26758 4.55103C9.13574 4.41907 9.0752 4.28149 9.08057 4.0946C9.0918 3.31372 9.08643 2.53845 9.08643 1.75757C9.08643 1.44409 9.47119 0.943726 9.78467 0.883301C10.1421 0.811768 10.5103 0.773315 10.8677 0.701782C10.9722 0.67981 11.0879 0.61377 11.1484 0.531372C11.6709 -0.172485 12.5889 -0.177979 13.106 0.520386C13.1772 0.61377 13.3149 0.685303 13.4302 0.712769C13.7603 0.784302 14.0957 0.822754 14.4312 0.883301C14.7666 0.949219 15.124 1.38367 15.124 1.72461C15.124 2.51086 15.1187 3.30273 15.1294 4.08911C15.1348 4.29248 15.0688 4.43005 14.9316 4.573C14.5137 4.99634 14.1123 5.43079 13.6943 5.87622ZM11.3848 8.93909C11.3682 9.005 11.3516 9.04358 11.3574 9.07654C11.4287 9.44495 11.2583 9.60437 10.9175 9.74182C10.2686 10.0114 9.97705 10.5557 9.99365 11.254C10.0103 11.9469 10.3838 12.3758 11.0107 12.6013C11.2856 12.7003 11.5718 12.7717 11.8467 12.8652C12.0996 12.9477 12.3525 13.0302 12.5947 13.1292C12.7979 13.2116 12.9136 13.3711 12.8916 13.6021C12.8696 13.8385 12.7212 13.976 12.5122 14.0145C12.2974 14.0585 12.0664 14.0969 11.8633 14.0474C11.4673 13.954 11.0879 13.7945 10.6699 13.6516C10.4829 13.899 10.2686 14.1794 10.0103 14.5258C10.4004 14.6963 10.7358 14.8723 11.0933 14.9932C11.2969 15.0592 11.3794 15.1472 11.3516 15.3561C11.3354 15.5046 11.3462 15.6586 11.3462 15.829C11.6597 15.829 11.9238 15.829 12.1875 15.829C12.5669 15.829 12.5835 15.829 12.5615 15.4387C12.5503 15.1967 12.6055 15.0648 12.8696 15.0317C13.0068 15.0153 13.1445 14.9382 13.271 14.8668C13.8535 14.5479 14.0957 14.0364 14.0845 13.3876C14.0737 12.7717 13.7656 12.3483 13.2158 12.1009C12.9683 11.9909 12.7046 11.9084 12.4404 11.8204C12.1108 11.7104 11.7808 11.6115 11.4507 11.4905C11.2471 11.4135 11.165 11.2485 11.1812 11.0286C11.1978 10.8196 11.3242 10.6766 11.5166 10.6437C11.7476 10.6052 11.9951 10.5831 12.2207 10.6217C12.4956 10.6711 12.7539 10.7976 13.0454 10.8966C13.2271 10.6162 13.4141 10.3192 13.6338 9.97278C13.3809 9.8573 13.1665 9.71436 12.9355 9.6759C12.6108 9.62085 12.5122 9.47241 12.5503 9.16455C12.5615 9.09302 12.4624 8.95007 12.4019 8.94458C12.0723 8.9281 11.7256 8.93909 11.3848 8.93909Z" fill="#CAFF33" fill-opacity="1.000000" fill-rule="nonzero"/>
	<path id="Vector" d="M11.6821 27.9871C10.5107 27.9871 9.33398 27.954 8.1626 27.998C7.37646 28.0256 6.70557 27.7891 6.07324 27.3712C5.17676 26.7718 4.35742 26.09 3.64258 25.2761C2.58691 24.0719 1.52002 22.8677 0.464355 21.6634C-0.398926 20.6736 -0.00878906 19.2109 1.22314 18.8095C1.36621 18.76 1.53125 18.7435 1.67969 18.7435C2.6582 18.738 3.64258 18.7325 4.62158 18.749C4.75879 18.749 4.92383 18.8205 5.02295 18.914C5.69385 19.5629 6.35352 20.2282 7.00781 20.8936C7.13965 21.0256 7.26074 21.053 7.44775 21.0256C7.84375 20.9651 8.25049 20.9101 8.65186 20.9101C10.5054 20.899 12.3525 20.9046 14.2061 20.9046C14.8384 20.9046 15.3057 21.229 15.4707 21.7679C15.7236 22.5817 15.1299 23.3461 14.2222 23.3516C12.9961 23.3571 11.7642 23.3516 10.5381 23.3516C10.3184 23.3516 10.0981 23.3461 9.87842 23.3516C9.48242 23.3625 9.22412 23.6155 9.21826 23.9729C9.21826 24.3358 9.47705 24.6108 9.86719 24.6108C11.8193 24.6163 13.7715 24.6163 15.7236 24.6108C16.1196 24.6108 16.4053 24.3908 16.6802 24.1269C17.9561 22.9006 19.2319 21.6744 20.5132 20.4537C21.0352 19.9532 21.728 19.9313 22.2231 20.3767C22.7563 20.8606 22.7676 21.6414 22.2285 22.1858C21.6621 22.7632 21.085 23.3076 20.5132 23.8629C19.248 25.0892 17.9834 26.3099 16.7241 27.5361C16.4165 27.8331 16.0757 27.9871 15.6411 27.9871C14.3213 27.9816 13.0015 27.9871 11.6821 27.9871Z" fill="#CAFF33" fill-opacity="1.000000" fill-rule="nonzero"/>
	<path id="Vector" d="M5.13818 4.74902C5.67139 5.28235 6.20508 5.8158 6.72754 6.33813C6.40283 6.6626 6.06201 7.00354 5.72119 7.33899C5.21533 6.81653 4.68164 6.26672 4.17041 5.73877C4.47266 5.43091 4.81396 5.07898 5.13818 4.74902Z" fill="#CAFF33" fill-opacity="1.000000" fill-rule="nonzero"/>
	<path id="Vector" d="M19.0229 4.74902C19.3472 5.07349 19.6826 5.41992 19.9961 5.73328C19.4736 6.25574 18.9292 6.80005 18.4014 7.32251C18.0825 7.00354 17.7471 6.6571 17.4116 6.32166C17.9341 5.8103 18.4727 5.28235 19.0229 4.74902Z" fill="#CAFF33" fill-opacity="1.000000" fill-rule="nonzero"/>
	<path id="Vector" d="M20.2876 13.4152C20.2876 12.9478 20.2822 12.5189 20.293 12.09C20.293 12.035 20.3975 11.936 20.4526 11.936C21.1235 11.925 21.7886 11.925 22.4595 11.936C22.5146 11.936 22.6191 12.0185 22.6191 12.0624C22.6299 12.5079 22.6245 12.9532 22.6245 13.4152C21.8384 13.4152 21.0791 13.4152 20.2876 13.4152Z" fill="#CAFF33" fill-opacity="1.000000" fill-rule="nonzero"/>
	<path id="Vector" d="M3.85693 13.4316C3.09814 13.4316 2.38867 13.4371 1.67383 13.4261C1.61914 13.4261 1.53125 13.3217 1.52539 13.2612C1.51465 12.8763 1.50928 12.4913 1.52539 12.1064C1.52539 12.046 1.63574 11.936 1.6958 11.936C2.35596 11.925 3.01562 11.925 3.67578 11.936C3.73584 11.936 3.84619 12.024 3.84619 12.079C3.8623 12.5079 3.85693 12.9478 3.85693 13.4316Z" fill="#CAFF33" fill-opacity="1.000000" fill-rule="nonzero"/>
</svg>
