<svg width="27.000488" height="20.000793" viewBox="0 0 27.0005 20.0008" fill="none" xmlns="http://www.w3.org/2000/svg" xmlns:xlink="http://www.w3.org/1999/xlink">
	<desc>
			Created with Pixso.
	</desc>
	<defs/>
	<path id="Vector" d="M23.6577 9.01971C23.6577 9.76758 23.6675 10.5105 23.6523 11.2584C23.6426 11.6618 23.7578 12.0161 23.9688 12.3506C24.5107 13.2264 25.2285 13.9595 25.9561 14.6827C26.2271 14.9533 26.5083 15.2092 26.7939 15.4601C26.9346 15.5831 27 15.711 27 15.9029C26.9897 16.7245 26.9897 17.5413 26.9951 18.3629C27 19.0468 26.6987 19.5585 26.0713 19.8438C25.4292 20.1341 24.8267 20.0111 24.2998 19.5634C23.2109 18.6286 22.127 17.6888 21.043 16.754C20.3052 16.1144 19.5723 15.465 18.8198 14.845C18.5537 14.6237 18.2373 14.4613 17.9312 14.294C17.4795 14.048 16.9927 13.9152 16.4658 13.9349C16.0845 13.9496 15.6929 13.9545 15.3115 13.925C14.7544 13.8807 14.3579 13.5019 14.2827 12.9803C14.2124 12.5228 14.4888 12.0308 14.9502 11.8536C15.126 11.7848 15.3218 11.7552 15.5122 11.7552C16.9575 11.7454 18.4033 11.7504 19.8535 11.7504C20.3955 11.7504 20.5913 11.5585 20.5913 11.0222C20.5913 9.93976 20.5864 8.85736 20.5913 7.77496C20.5962 7.36163 20.4507 7.03693 20.1343 6.75647C18.313 5.15259 16.501 3.53882 14.6841 1.92505C14.1978 1.49207 14.1421 0.852417 14.5488 0.38501C14.9502 -0.0823975 15.6079 -0.126709 16.1245 0.266968C18.4482 2.03821 20.7671 3.80933 23.1006 5.5708C23.4868 5.86108 23.6675 6.21533 23.6626 6.68274C23.6523 7.46008 23.6577 8.23743 23.6577 9.01971Z" fill="#CAFF33" fill-opacity="1.000000" fill-rule="nonzero"/>
	<path id="Vector" d="M0.00537109 17.2065C0.00537109 16.7637 0.0102539 16.3209 0.000488281 15.8781C-0.00488281 15.7059 0.0654297 15.5928 0.181152 15.4747C0.938965 14.7121 1.68652 13.9396 2.4292 13.1622C2.58496 12.9999 2.7002 12.808 2.83594 12.6309C3.19189 12.1536 3.35791 11.6321 3.34277 11.022C3.3125 9.61493 3.34766 8.20288 3.32764 6.79077C3.31738 6.23486 3.51807 5.84119 3.9751 5.49683C6.29346 3.76501 8.58691 2.00354 10.8906 0.247192C11.3726 -0.121826 12.0347 -0.0628662 12.4263 0.380005C12.8276 0.832642 12.7925 1.48206 12.3257 1.90515C11.6182 2.5448 10.9004 3.16968 10.188 3.80432C9.05859 4.8031 7.92969 5.80676 6.80029 6.80554C6.53467 7.04175 6.40381 7.32709 6.40381 7.67151C6.40381 8.81787 6.39893 9.96423 6.40381 11.1155C6.40381 11.5386 6.625 11.7453 7.06152 11.7453C8.55176 11.7502 10.0376 11.7453 11.5278 11.7502C12.2305 11.7502 12.7222 12.2324 12.7075 12.8818C12.6973 13.3787 12.3311 13.8265 11.8242 13.9003C11.5229 13.9446 11.2065 13.9642 10.9004 13.9347C9.87158 13.8363 9.00342 14.2053 8.23584 14.8055C7.45264 15.4156 6.72021 16.0946 5.97217 16.7391C4.87354 17.6838 3.7793 18.6383 2.67529 19.578C1.78174 20.3406 0.461914 20.006 0.0805664 18.9187C0.0302734 18.7809 0.0151367 18.6284 0.0102539 18.4858C0.000488281 18.0626 0.00537109 17.6346 0.00537109 17.2065Z" fill="#CAFF33" fill-opacity="1.000000" fill-rule="nonzero"/>
	<path id="Vector" d="M14.2129 10.0381C14.2129 10.2743 14.2129 10.4957 14.2129 10.7368C13.791 10.7368 13.3896 10.7368 12.9531 10.7368C12.9531 10.5449 12.9482 10.358 12.9531 10.171C12.958 10.0332 12.918 9.97418 12.7725 9.93976C12.356 9.84137 11.9692 9.67407 11.6079 9.38867C11.8389 9.08856 12.0596 8.80322 12.2607 8.53754C12.6421 8.68024 12.9883 8.84747 13.3545 8.93115C13.6206 8.99017 13.9165 8.95081 14.1929 8.90656C14.4033 8.87207 14.5391 8.70972 14.5542 8.48834C14.5742 8.26202 14.4536 8.10455 14.2529 8.02582C13.9116 7.89795 13.5552 7.7995 13.209 7.68634C12.958 7.60272 12.6973 7.52893 12.4512 7.4256C11.874 7.18451 11.5679 6.75647 11.5527 6.12671C11.5376 5.46741 11.7886 4.93604 12.3911 4.65063C12.7822 4.46375 13.1187 4.32593 12.9229 3.77979C13.3496 3.77979 13.7207 3.7749 14.0972 3.78967C14.1377 3.78967 14.2075 3.91272 14.2075 3.98157C14.2329 4.39978 14.2329 4.38989 14.6294 4.52771C14.8604 4.60645 15.0811 4.7196 15.332 4.83276C15.1211 5.15259 14.9507 5.43298 14.7598 5.69861C14.7295 5.73804 14.6094 5.73315 14.5391 5.71338C14.2075 5.62976 13.8867 5.52148 13.5552 5.45752C13.4248 5.43298 13.2744 5.47229 13.1387 5.50684C12.938 5.56091 12.8027 5.69373 12.7876 5.91028C12.7725 6.12183 12.8677 6.28418 13.0635 6.36292C13.3193 6.46619 13.5806 6.54492 13.8413 6.62854C14.1274 6.72205 14.4233 6.79089 14.6997 6.89429C15.4976 7.19928 15.8188 7.68146 15.7783 8.47357C15.7383 9.20172 15.2817 9.74292 14.5288 9.95453C14.4385 9.98401 14.3433 10.0086 14.2129 10.0381Z" fill="#CAFF33" fill-opacity="1.000000" fill-rule="nonzero"/>
</svg>
