<svg width="38.149414" height="38.149658" viewBox="0 0 38.1494 38.1497" fill="none" xmlns="http://www.w3.org/2000/svg" xmlns:xlink="http://www.w3.org/1999/xlink">
	<desc>
			Created with Pixso.
	</desc>
	<defs>
		<clipPath id="clip5_83360">
			<rect id="Icon" width="20.808865" height="20.808865" transform="translate(8.670410 8.670410)" fill="white" fill-opacity="0"/>
		</clipPath>
	</defs>
	<rect id="Sub Container" rx="19.074791" width="38.149582" height="38.149582" fill="#CAFF33" fill-opacity="1.000000"/>
	<g clip-path="url(#clip5_83360)">
		<path id="Vector (Stroke)" d="M22.4048 11.0005C22.1118 11.3164 22.1299 11.8101 22.4458 12.1033L24.6309 14.1326L15.6934 14.1326C15.2627 14.1326 14.9131 14.4819 14.9131 14.9131C14.9131 15.344 15.2627 15.6934 15.6934 15.6934L24.6309 15.6934L22.4458 17.7227C22.1299 18.0159 22.1118 18.5095 22.4048 18.8254C22.6982 19.1411 23.1919 19.1594 23.5078 18.8662L27.1494 15.4849C27.3081 15.3372 27.3984 15.1299 27.3984 14.9131C27.3984 14.696 27.3081 14.4888 27.1494 14.3411L23.5078 10.9597C23.1919 10.6665 22.6982 10.6848 22.4048 11.0005ZM15.7451 19.3242C15.4521 19.0083 14.958 18.99 14.6426 19.2832L11.001 22.6648C10.8418 22.8123 10.7515 23.0195 10.7515 23.2366C10.7515 23.4536 10.8418 23.6606 11.001 23.8083L14.6426 27.1897C14.958 27.4832 15.4521 27.4648 15.7451 27.1489C16.0386 26.8333 16.02 26.3394 15.7041 26.0461L13.519 24.0168L22.4565 24.0168C22.8872 24.0168 23.2368 23.6675 23.2368 23.2366C23.2368 22.8057 22.8872 22.4563 22.4565 22.4563L13.519 22.4563L15.7041 20.427C16.02 20.1338 16.0386 19.6399 15.7451 19.3242Z" fill="#1C1C1C" fill-opacity="1.000000" fill-rule="evenodd"/>
	</g>
</svg>
